<svg width="447" height="447" viewBox="0 0 447 447" fill="none" xmlns="http://www.w3.org/2000/svg">
<g clip-path="url(#clip0_1_655)">
<path fill-rule="evenodd" clip-rule="evenodd" d="M253.794 45.0888C228.669 58.0732 191.248 60.7804 164.516 51.5478C142.797 44.0463 119.172 44.9141 98.1137 55.9447C53.674 79.2226 37.314 139.036 61.0908 190.205C61.0961 190.217 61.0969 190.23 61.0928 190.241L68.3053 203.342C92.6858 247.625 112.039 294.496 126.004 343.08L139.289 389.296C143.687 402.54 156.464 411.108 170.323 410.105C185.207 409.028 197.103 397.255 198.398 382.32L206.038 294.202C206.938 283.824 215.205 275.643 225.548 274.894C235.89 274.146 245.249 281.053 247.633 291.193L267.877 377.293C271.308 391.886 284.775 401.825 299.659 400.748C313.518 399.745 324.928 389.428 327.375 375.689L333.868 328.041C340.695 277.953 353.1 228.785 370.853 181.453L376.104 167.451C376.099 167.44 376.097 167.427 376.101 167.415C392.265 113.356 367.466 56.5206 320.138 39.8818C297.711 31.9972 274.207 34.539 253.794 45.0888Z" fill="url(#paint0_linear_1_655)"/>
<g filter="url(#filter0_f_1_655)">
<path d="M110.413 92.2334L107.105 80.679C106.124 77.2523 102.876 74.9824 99.3206 75.2396C95.6659 75.504 92.7317 78.3603 92.3691 82.0066L91.3395 92.3613C89.8439 107.402 79.237 119.968 64.6603 123.967L49.4108 128.15C46.1609 129.042 43.9943 132.106 44.2375 135.467C44.4883 138.934 47.225 141.702 50.6885 141.992L64.6036 143.159C80.2928 144.475 93.3728 155.697 97.0578 171.004L99.6264 181.674C100.482 185.228 103.783 187.641 107.429 187.377C110.979 187.12 113.855 184.393 114.302 180.862L115.871 168.43C117.779 153.329 128.852 140.995 143.66 137.476L156.835 134.345C160.223 133.54 162.527 130.397 162.276 126.923C162.033 123.56 159.457 120.831 156.112 120.394L140.797 118.396C126.359 116.511 114.42 106.231 110.413 92.2334Z" fill="url(#paint1_linear_1_655)"/>
</g>
<path d="M107.138 99.7626L102.735 77.8886C102.406 76.257 100.916 75.1242 99.256 75.2443C97.5563 75.3673 96.2287 76.7624 96.1901 78.4661L95.69 100.541C95.3958 113.531 86.0771 124.554 73.3174 127.007L46.8858 132.087C45.2585 132.399 44.1227 133.88 44.2423 135.533C44.3651 137.23 45.7697 138.55 47.4715 138.566L72.766 138.808C86.4068 138.939 97.98 148.855 100.2 162.314L103.882 184.634C104.159 186.313 105.67 187.504 107.367 187.381C109.026 187.261 110.335 185.922 110.417 184.261L111.545 161.459C112.226 147.705 122.459 136.314 136.061 134.168L159.522 130.467C161.205 130.201 162.404 128.691 162.281 126.991C162.161 125.338 160.827 124.034 159.171 123.953L133.809 122.711C120.713 122.07 109.726 112.616 107.138 99.7626Z" fill="url(#paint2_linear_1_655)"/>
<g filter="url(#filter1_f_1_655)">
<path d="M324.563 228.879L323.439 224.954C322.822 222.8 320.78 221.373 318.544 221.534C316.246 221.701 314.402 223.497 314.174 225.789L313.893 228.61C312.732 240.29 304.495 250.048 293.175 253.153L287.163 254.803C285.119 255.363 283.757 257.29 283.91 259.404C284.068 261.583 285.788 263.324 287.966 263.506L292.746 263.907C304.98 264.933 315.18 273.685 318.054 285.621L318.737 288.457C319.275 290.692 321.35 292.209 323.643 292.043C325.875 291.881 327.684 290.167 327.964 287.946L328.628 282.692C330.021 271.656 338.114 262.641 348.937 260.069L354.708 258.698C356.838 258.192 358.287 256.215 358.129 254.032C357.976 251.916 356.356 250.201 354.253 249.926L348.069 249.119C336.899 247.661 327.663 239.708 324.563 228.879Z" fill="url(#paint3_linear_1_655)"/>
</g>
<path d="M323.46 236.954L320.691 223.2C320.485 222.174 319.548 221.462 318.504 221.537C317.435 221.615 316.6 222.492 316.576 223.563L316.262 237.443C316.077 245.611 310.217 252.542 302.194 254.084L285.575 257.278C284.552 257.475 283.838 258.406 283.913 259.445C283.99 260.512 284.873 261.342 285.943 261.352L301.848 261.504C310.425 261.586 317.702 267.821 319.098 276.284L321.413 290.318C321.587 291.374 322.537 292.123 323.604 292.046C324.647 291.97 325.47 291.128 325.521 290.084L326.231 275.746C326.659 267.098 333.093 259.936 341.646 258.587L356.397 256.26C357.455 256.093 358.209 255.143 358.132 254.074C358.057 253.035 357.218 252.215 356.177 252.164L340.23 251.383C331.995 250.98 325.087 245.035 323.46 236.954Z" fill="url(#paint4_linear_1_655)"/>
</g>
<defs>
<filter id="filter0_f_1_655" x="23.3503" y="54.3512" width="159.813" height="153.914" filterUnits="userSpaceOnUse" color-interpolation-filters="sRGB">
<feFlood flood-opacity="0" result="BackgroundImageFix"/>
<feBlend mode="normal" in="SourceGraphic" in2="BackgroundImageFix" result="shape"/>
<feGaussianBlur stdDeviation="10.4343" result="effect1_foregroundBlur_1_655"/>
</filter>
<filter id="filter1_f_1_655" x="263.03" y="200.653" width="115.98" height="112.271" filterUnits="userSpaceOnUse" color-interpolation-filters="sRGB">
<feFlood flood-opacity="0" result="BackgroundImageFix"/>
<feBlend mode="normal" in="SourceGraphic" in2="BackgroundImageFix" result="shape"/>
<feGaussianBlur stdDeviation="10.4343" result="effect1_foregroundBlur_1_655"/>
</filter>
<linearGradient id="paint0_linear_1_655" x1="87.2219" y1="49.9609" x2="311.644" y2="385.235" gradientUnits="userSpaceOnUse">
<stop stop-color="#F0F6F9"/>
<stop offset="1" stop-color="#CDDFF2"/>
</linearGradient>
<linearGradient id="paint1_linear_1_655" x1="99.2091" y1="75.2477" x2="107.322" y2="187.385" gradientUnits="userSpaceOnUse">
<stop stop-color="white"/>
<stop offset="1" stop-color="white"/>
</linearGradient>
<linearGradient id="paint2_linear_1_655" x1="99.2091" y1="75.2477" x2="144.738" y2="187.031" gradientUnits="userSpaceOnUse">
<stop stop-color="#CB003F"/>
<stop offset="1" stop-color="white"/>
</linearGradient>
<linearGradient id="paint3_linear_1_655" x1="318.474" y1="221.539" x2="323.575" y2="292.048" gradientUnits="userSpaceOnUse">
<stop stop-color="white"/>
<stop offset="1" stop-color="white"/>
</linearGradient>
<linearGradient id="paint4_linear_1_655" x1="318.474" y1="221.539" x2="323.575" y2="292.048" gradientUnits="userSpaceOnUse">
<stop stop-color="#EF7A9B"/>
<stop offset="1" stop-color="white"/>
</linearGradient>
<clipPath id="clip0_1_655">
<rect width="417.373" height="417.373" fill="white" transform="translate(0 30.1172) rotate(-4.13799)"/>
</clipPath>
</defs>
</svg>
